G04 #@! TF.FileFunction,Copper,L1,Top,Signal*
%FSLAX46Y46*%
G04 Gerber Fmt 4.6, Leading zero omitted, Abs format (unit mm)*
G04 Created by KiCad (PCBNEW (2015-07-07 BZR 5906)-product) date Wed 26 Aug 2015 18:02:17 CEST*
%MOMM*%
G01*
G04 APERTURE LIST*
%ADD10C,0.100000*%
%ADD11C,1.998980*%
%ADD12O,1.524000X2.540000*%
%ADD13C,3.937000*%
%ADD14R,20.000000X20.000000*%
%ADD15C,1.016000*%
G04 APERTURE END LIST*
D10*
D11*
X153416000Y-75786000D03*
X153416000Y-55786000D03*
X149606000Y-74582000D03*
X149606000Y-94582000D03*
X157226000Y-74836000D03*
X157226000Y-94836000D03*
X161036000Y-76040000D03*
X161036000Y-56040000D03*
D12*
X186855100Y-100482400D03*
X184315100Y-100482400D03*
X181775100Y-100482400D03*
X174155100Y-100482400D03*
X176695100Y-100482400D03*
X179235100Y-100482400D03*
X169075100Y-100482400D03*
X166535100Y-100482400D03*
X163995100Y-100482400D03*
X158915100Y-100482400D03*
X156375100Y-100482400D03*
X186855100Y-52222400D03*
X184315100Y-52222400D03*
X181775100Y-52222400D03*
X179235100Y-52222400D03*
X176695100Y-52222400D03*
X174155100Y-52222400D03*
X171615100Y-52222400D03*
X169075100Y-52222400D03*
X165011100Y-52222400D03*
X162471100Y-52222400D03*
X159931100Y-52222400D03*
X157391100Y-52222400D03*
X154851100Y-52222400D03*
X152311100Y-52222400D03*
X149771100Y-52222400D03*
X147231100Y-52222400D03*
X161455100Y-100482400D03*
D13*
X189395100Y-95402400D03*
X189395100Y-67462400D03*
X138595100Y-52222400D03*
X137325100Y-100482400D03*
D14*
X135002000Y-87122000D03*
X135002000Y-65278000D03*
X175894000Y-65786000D03*
X175894000Y-87376000D03*
D15*
X161455100Y-100482400D02*
X161455100Y-97955100D01*
X161455100Y-97955100D02*
X160528000Y-97028000D01*
X160528000Y-97028000D02*
X154686000Y-97028000D01*
X154686000Y-97028000D02*
X153416000Y-95758000D01*
X153416000Y-95758000D02*
X153416000Y-79248000D01*
X153416000Y-79248000D02*
X153416000Y-75786000D01*
X153416000Y-75786000D02*
X152494000Y-75786000D01*
X152494000Y-75786000D02*
X151290000Y-74582000D01*
X151290000Y-74582000D02*
X149606000Y-74582000D01*
X157226000Y-74836000D02*
X156812000Y-74836000D01*
X156812000Y-74836000D02*
X155862000Y-75786000D01*
X155862000Y-75786000D02*
X153416000Y-75786000D01*
X161036000Y-76040000D02*
X161036000Y-75946000D01*
X161036000Y-75946000D02*
X159926000Y-74836000D01*
X159926000Y-74836000D02*
X157226000Y-74836000D01*
X143002000Y-87122000D02*
X145491200Y-87122000D01*
X157391100Y-53898266D02*
X157391100Y-52222400D01*
X156934598Y-54354768D02*
X157391100Y-53898266D01*
X156934598Y-63601600D02*
X156934598Y-54354768D01*
X147040600Y-73495598D02*
X156934598Y-63601600D01*
X147040600Y-85572600D02*
X147040600Y-73495598D01*
X145491200Y-87122000D02*
X147040600Y-85572600D01*
X143002000Y-87122000D02*
X145542000Y-87122000D01*
X149606000Y-94582000D02*
X149606000Y-89154000D01*
X149606000Y-89154000D02*
X147574000Y-87122000D01*
X147574000Y-87122000D02*
X145542000Y-87122000D01*
X143002000Y-65278000D02*
X146304000Y-65278000D01*
X150716000Y-55786000D02*
X153416000Y-55786000D01*
X148082000Y-58420000D02*
X150716000Y-55786000D01*
X148082000Y-63500000D02*
X148082000Y-58420000D01*
X146304000Y-65278000D02*
X148082000Y-63500000D01*
X153416000Y-55786000D02*
X154526000Y-55786000D01*
X154851100Y-55460900D02*
X154851100Y-52222400D01*
X154526000Y-55786000D02*
X154851100Y-55460900D01*
X167894000Y-65786000D02*
X164592000Y-65786000D01*
X163576000Y-64770000D02*
X163576000Y-56040000D01*
X164592000Y-65786000D02*
X163576000Y-64770000D01*
X161036000Y-56040000D02*
X163576000Y-56040000D01*
X163576000Y-56040000D02*
X163670000Y-56040000D01*
X163670000Y-56040000D02*
X165011100Y-54698900D01*
X165011100Y-54698900D02*
X165011100Y-52222400D01*
X159931100Y-52222400D02*
X159931100Y-53530500D01*
X163449000Y-86487000D02*
X164338000Y-87376000D01*
X163449000Y-72771000D02*
X163449000Y-86487000D01*
X158470600Y-67792600D02*
X163449000Y-72771000D01*
X158470600Y-54991000D02*
X158470600Y-67792600D01*
X159931100Y-53530500D02*
X158470600Y-54991000D01*
X157226000Y-94836000D02*
X157226000Y-90170000D01*
X160020000Y-87376000D02*
X164338000Y-87376000D01*
X164338000Y-87376000D02*
X167894000Y-87376000D01*
X157226000Y-90170000D02*
X160020000Y-87376000D01*
M02*
