M48
;DRILL file {KiCad (2015-07-07 BZR 5906)-product} date Wed 26 Aug 2015 17:59:30 CEST
;FORMAT={-:-/ absolute / metric / decimal}
FMAT,2
METRIC,TZ
T1C0.800
T2C1.001
T3C1.016
T4C3.175
%
G90
G05
M71
T1
X143.002Y-65.278
X143.002Y-87.122
X167.894Y-65.786
X167.894Y-87.376
T2
X149.606Y-74.582
X149.606Y-94.582
X153.416Y-55.786
X153.416Y-75.786
X157.226Y-74.836
X157.226Y-94.836
X161.036Y-56.04
X161.036Y-76.04
T3
X147.231Y-52.222
X149.771Y-52.222
X152.311Y-52.222
X154.851Y-52.222
X156.375Y-100.482
X157.391Y-52.222
X158.915Y-100.482
X159.931Y-52.222
X161.455Y-100.482
X162.471Y-52.222
X163.995Y-100.482
X165.011Y-52.222
X166.535Y-100.482
X169.075Y-52.222
X169.075Y-100.482
X171.615Y-52.222
X174.155Y-52.222
X174.155Y-100.482
X176.695Y-52.222
X176.695Y-100.482
X179.235Y-52.222
X179.235Y-100.482
X181.775Y-52.222
X181.775Y-100.482
X184.315Y-52.222
X184.315Y-100.482
X186.855Y-52.222
X186.855Y-100.482
T4
X137.325Y-100.482
X138.595Y-52.222
X189.395Y-67.462
X189.395Y-95.402
T0
M30
